<!-- created by svgstack.com | Attribution is required. --><svg width="512" height="398" viewBox="0 0 512 398" fill="none" xmlns="http://www.w3.org/2000/svg"><path d="M16.1669 81.0475C15.9666 95.6011 16.1669 110.188 16.1669 124.742C16.1761 126.448 16.679 128.116 17.6148 129.544C18.5506 130.971 19.8793 132.097 21.4408 132.786C67.238 155.574 113.102 178.283 159.033 200.915C113.502 223.279 68.1393 245.944 22.676 268.409C20.9213 268.969 19.362 270.016 18.18 271.429C16.9979 272.841 16.2419 274.56 16 276.386C16 290.973 16 305.594 16 320.181C17.4749 334.651 23.7301 348.218 33.777 358.736C43.8238 369.255 57.0894 376.125 71.4773 378.262C77.2186 378.796 82.96 378.696 88.7013 378.696H343.657C349.815 378.965 355.983 378.461 362.016 377.194C371.026 375.004 379.482 370.962 386.844 365.324C394.206 359.686 400.313 352.576 404.775 344.448C407.679 338.56 410.026 332.414 411.785 326.089C437.955 339.708 464.692 352.392 491.062 365.644C491.615 366.053 492.272 366.3 492.957 366.358C493.643 366.415 494.331 366.28 494.945 365.968C495.558 365.656 496.072 365.179 496.43 364.592C496.788 364.004 496.975 363.328 496.97 362.64C496.97 347.552 496.97 332.598 496.97 317.377C496.858 315.884 496.311 314.457 495.398 313.271C494.485 312.085 493.244 311.191 491.83 310.701L270.455 200.915C344.402 164.219 418.361 127.501 492.331 90.761C493.641 90.1944 494.761 89.2647 495.559 88.0817C496.358 86.8987 496.801 85.5119 496.837 84.0851C496.837 68.9974 496.837 54.0432 496.837 38.8887C496.764 38.3233 496.557 37.7835 496.232 37.3146C495.908 36.8456 495.477 36.4611 494.973 36.1931C494.47 35.9251 493.91 35.7815 493.34 35.7743C492.77 35.7671 492.206 35.8965 491.696 36.1516L411.318 76.0071C409.449 67.2735 405.9 58.9863 400.87 51.6064C395.286 43.5051 387.973 36.7453 379.458 31.8155C370.944 26.8856 361.44 23.9087 351.634 23.1001H78.22C62.6819 23.8218 47.9072 30.0476 36.5386 40.664C25.1699 51.2805 17.9489 65.595 16.1669 81.0475Z" fill="white"/><path d="M66.8035 81.3476C68.2178 78.5317 70.4094 76.18 73.1188 74.5709C75.8282 72.9618 78.9419 72.1627 82.0914 72.2683H346.36C350.4 72.2262 354.318 73.6511 357.387 76.2783C360.456 78.9055 362.468 82.5568 363.05 86.5549C363.383 90.9944 363.216 95.4339 363.05 99.9068C313.647 124.385 264.245 148.864 214.843 173.343C164.773 148.775 115.004 123.907 65.101 99.1725C65.3347 93.2308 64.0663 86.8553 66.8035 81.3476Z" fill="white"/><path d="M65.1015 302.856C114.86 278.044 164.674 253.332 214.543 228.72C264.146 252.887 313.548 277.721 363.083 302.156C362.75 308.564 364.318 315.507 360.947 321.416C359.494 323.96 357.389 326.072 354.848 327.533C352.308 328.994 349.424 329.751 346.494 329.727H82.1252C79.0214 329.812 75.9556 329.028 73.2725 327.466C70.5895 325.903 68.3955 323.623 66.9373 320.882C63.9999 315.341 65.3351 308.865 65.1015 302.856Z" fill="white"/><path d="M16.166 81.0475C17.9268 65.5715 25.1431 51.2289 36.5207 40.5915C47.8983 29.954 62.6933 23.7174 78.2526 23H351.767C361.573 23.8086 371.076 26.7855 379.591 31.7154C388.106 36.6452 395.419 43.405 401.002 51.5063C406.033 58.8862 409.581 67.1734 411.45 75.907L491.829 36.0514C492.339 35.7963 492.902 35.667 493.473 35.6742C494.043 35.6814 494.603 35.825 495.106 36.093C495.609 36.361 496.041 36.7455 496.365 37.2145C496.689 37.6834 496.897 38.2232 496.969 38.7886C496.969 53.8429 496.969 68.8305 496.969 83.985C497.001 85.4951 496.575 86.9795 495.747 88.2427C494.919 89.5059 493.727 90.4886 492.33 91.0615C418.382 127.735 344.424 164.453 270.454 201.215L491.829 310.734C493.243 311.225 494.484 312.118 495.397 313.304C496.31 314.49 496.857 315.918 496.969 317.41C496.969 332.498 496.969 347.452 496.969 362.674C496.974 363.362 496.787 364.037 496.429 364.625C496.072 365.213 495.557 365.689 494.944 366.001C494.33 366.313 493.642 366.448 492.957 366.391C492.271 366.334 491.615 366.087 491.061 365.678C464.691 352.326 437.954 339.742 411.784 326.123C410.025 332.447 407.679 338.594 404.774 344.481C400.341 352.64 394.254 359.784 386.902 365.457C379.551 371.13 371.098 375.207 362.082 377.427C356.049 378.695 349.881 379.199 343.723 378.929H88.8006C83.0593 378.929 77.2845 378.929 71.5766 378.496C57.1856 376.341 43.9237 369.45 33.8883 358.913C23.8528 348.375 17.6166 334.793 16.166 320.314C16.166 305.727 16.166 291.107 16.166 276.52C16.4079 274.694 17.164 272.975 18.3461 271.562C19.5281 270.15 21.0873 269.102 22.842 268.542C68.3053 246.078 113.669 223.413 159.199 201.048C113.335 178.216 67.4375 155.451 21.5068 132.753C19.9453 132.064 18.6165 130.938 17.6807 129.51C16.7449 128.083 16.242 126.415 16.2327 124.708C16.166 110.188 15.9323 95.6011 16.166 81.0475ZM66.8366 81.3479C64.0995 86.8556 65.368 93.2312 65.1343 99.1728C115.204 123.907 164.907 148.775 214.876 173.343C264.256 148.864 313.658 124.386 363.083 99.9071C363.083 95.4676 363.283 91.0281 363.083 86.5552C362.501 82.5571 360.489 78.9059 357.42 76.2786C354.351 73.6514 350.433 72.2265 346.393 72.2686H82.0912C78.9418 72.163 75.8281 72.9621 73.1187 74.5712C70.4092 76.1803 68.2176 78.532 66.8033 81.3479H66.8366ZM65.1343 302.857C65.368 308.865 64.0661 315.341 66.9702 320.915C68.4283 323.657 70.6223 325.937 73.3054 327.499C75.9884 329.062 79.0541 329.845 82.1579 329.761H346.627C349.557 329.785 352.441 329.027 354.981 327.566C357.522 326.106 359.627 323.994 361.08 321.449C364.418 315.608 362.883 308.598 363.216 302.189C313.714 277.755 264.279 252.921 214.676 228.754C164.673 253.455 114.815 278.156 65.1009 302.857H65.1343Z" fill="black"/></svg> 